<svg width="21" height="15" viewBox="0 0 21 15" fill="none" xmlns="http://www.w3.org/2000/svg">
<path fill-rule="evenodd" clip-rule="evenodd" d="M20.4471 0.721784C20.7284 1.00308 20.8863 1.38454 20.8863 1.78228C20.8863 2.18003 20.7284 2.56149 20.4471 2.84278L9.20415 14.0858C9.05557 14.2344 8.87917 14.3523 8.68503 14.4327C8.49088 14.5131 8.2828 14.5545 8.07265 14.5545C7.8625 14.5545 7.65442 14.5131 7.46027 14.4327C7.26613 14.3523 7.08973 14.2344 6.94115 14.0858L1.35515 8.50078C1.21188 8.36241 1.09761 8.1969 1.019 8.01389C0.940384 7.83088 0.899004 7.63405 0.897273 7.43489C0.895543 7.23572 0.933495 7.0382 1.00892 6.85385C1.08434 6.66951 1.19572 6.50203 1.33656 6.36119C1.4774 6.22035 1.64487 6.10897 1.82922 6.03355C2.01356 5.95813 2.21108 5.92018 2.41025 5.92191C2.60942 5.92364 2.80625 5.96502 2.98926 6.04363C3.17226 6.12225 3.33778 6.23652 3.47615 6.37978L8.07215 10.9758L18.3251 0.721784C18.4644 0.582394 18.6299 0.471819 18.8119 0.396377C18.994 0.320935 19.1891 0.282104 19.3862 0.282104C19.5832 0.282104 19.7783 0.320935 19.9604 0.396377C20.1424 0.471819 20.3078 0.582394 20.4471 0.721784Z" fill="black"/>
</svg>
